HIERARCHY
ROOT Hips
{
  OFFSET 5.72205e-005 65.662 3.42586
  CHANNELS 6 Xposition Yposition Zposition Zrotation Xrotation Yrotation
  JOINT Chest
  {
    OFFSET 0 8.7983 -4.7612
    CHANNELS 6 Xposition Yposition Zposition Zrotation Xrotation Yrotation
    JOINT Chest2
    {
      OFFSET 0 8.0291 0.4195
      CHANNELS 6 Xposition Yposition Zposition Zrotation Xrotation Yrotation
      JOINT Chest3
      {
        OFFSET 0 9.9351 -2.2114
        CHANNELS 6 Xposition Yposition Zposition Zrotation Xrotation Yrotation
        JOINT Neck
        {
          OFFSET 0 22.3885 -0.4656
          CHANNELS 6 Xposition Yposition Zposition Zrotation Xrotation Yrotation
          JOINT Head
          {
            OFFSET -0.0001 12.643 3.4389
            CHANNELS 6 Xposition Yposition Zposition Zrotation Xrotation Yrotation
            End Site
            {
              OFFSET 0.0001 17.6655 0.5274
            }
          }
        }
        JOINT LeftCollar
        {
          OFFSET 2.2603 21.606 7.4023
          CHANNELS 6 Xposition Yposition Zposition Zrotation Xrotation Yrotation
          JOINT LeftShoulder
          {
            OFFSET 13.5163 -1.1332 -5.0146
            CHANNELS 6 Xposition Yposition Zposition Zrotation Xrotation Yrotation
            JOINT LeftElbow
            {
              OFFSET -0.0995 -28.05 -0.2431
              CHANNELS 6 Xposition Yposition Zposition Zrotation Xrotation Yrotation
              JOINT LeftWrist
              {
                OFFSET 0.0679 -23.3996 -0.1402
                CHANNELS 6 Xposition Yposition Zposition Zrotation Xrotation Yrotation
                JOINT LeftFinger1
                {
                  OFFSET 0.7932 -9.069 2.5189
                  CHANNELS 6 Xposition Yposition Zposition Zrotation Xrotation Yrotation
                  JOINT LeftFinger11
                  {
                    OFFSET -0.8272 -3.3923 0.5977
                    CHANNELS 6 Xposition Yposition Zposition Zrotation Xrotation Yrotation
                    JOINT LeftFinger12
                    {
                      OFFSET -0.5649 -2.3158 0.4082
                      CHANNELS 6 Xposition Yposition Zposition Zrotation Xrotation Yrotation
                      End Site
                      {
                        OFFSET -0.4919 -1.6479 0.2673
                      }
                    }
                  }
                }
                JOINT LeftFinger2
                {
                  OFFSET 0.9159 -9.2044 0.2193
                  CHANNELS 6 Xposition Yposition Zposition Zrotation Xrotation Yrotation
                  JOINT LeftFinger21
                  {
                    OFFSET 0.0117 -4.1944 -0.0248
                    CHANNELS 6 Xposition Yposition Zposition Zrotation Xrotation Yrotation
                    JOINT LeftFinger22
                    {
                      OFFSET 0.0071 -2.3249 -0.0142
                      CHANNELS 6 Xposition Yposition Zposition Zrotation Xrotation Yrotation
                      End Site
                      {
                        OFFSET -0.1475 -2.0882 0.0028
                      }
                    }
                  }
                }
                JOINT LeftFinger3
                {
                  OFFSET 0.6113 -8.7231 -2.0637
                  CHANNELS 6 Xposition Yposition Zposition Zrotation Xrotation Yrotation
                  JOINT LeftFinger31
                  {
                    OFFSET -0.1927 -3.8059 -0.2383
                    CHANNELS 6 Xposition Yposition Zposition Zrotation Xrotation Yrotation
                    JOINT LeftFinger32
                    {
                      OFFSET -0.1091 -2.1688 -0.1362
                      CHANNELS 6 Xposition Yposition Zposition Zrotation Xrotation Yrotation
                      End Site
                      {
                        OFFSET -0.2358 -1.9176 -0.0906
                      }
                    }
                  }
                }
                JOINT LeftFinger4
                {
                  OFFSET -0.6151 -8.0947 -3.5641
                  CHANNELS 6 Xposition Yposition Zposition Zrotation Xrotation Yrotation
                  JOINT LeftFinger41
                  {
                    OFFSET -0.4882 -2.341 -0.6462
                    CHANNELS 6 Xposition Yposition Zposition Zrotation Xrotation Yrotation
                    JOINT LeftFinger42
                    {
                      OFFSET -0.3575 -1.7167 -0.4742
                      CHANNELS 6 Xposition Yposition Zposition Zrotation Xrotation Yrotation
                      End Site
                      {
                        OFFSET -0.4187 -1.5237 -0.3496
                      }
                    }
                  }
                }
                JOINT LeftFinger0
                {
                  OFFSET -1.42 -1.8761 1.4223
                  CHANNELS 6 Xposition Yposition Zposition Zrotation Xrotation Yrotation
                  JOINT LeftFinger01
                  {
                    OFFSET -1.1471 -3.4929 2.6334
                    CHANNELS 6 Xposition Yposition Zposition Zrotation Xrotation Yrotation
                    JOINT LeftFinger02
                    {
                      OFFSET -0.823 -2.3 1.6571
                      CHANNELS 6 Xposition Yposition Zposition Zrotation Xrotation Yrotation
                      End Site
                      {
                        OFFSET -0.5822 -1.6914 1.1582
                      }
                    }
                  }
                }
              }
            }
          }
        }
        JOINT RightCollar
        {
          OFFSET -2.2603 21.606 7.4023
          CHANNELS 6 Xposition Yposition Zposition Zrotation Xrotation Yrotation
          JOINT RightShoulder
          {
            OFFSET -13.5187 -1.1334 -5.0155
            CHANNELS 6 Xposition Yposition Zposition Zrotation Xrotation Yrotation
            JOINT RightElbow
            {
              OFFSET 0.0994 -28.0499 -0.2431
              CHANNELS 6 Xposition Yposition Zposition Zrotation Xrotation Yrotation
              JOINT RightWrist
              {
                OFFSET -0.0679 -23.3996 -0.1402
                CHANNELS 6 Xposition Yposition Zposition Zrotation Xrotation Yrotation
                JOINT RightFinger1
                {
                  OFFSET -0.7932 -9.0691 2.5189
                  CHANNELS 6 Xposition Yposition Zposition Zrotation Xrotation Yrotation
                  JOINT RightFinger11
                  {
                    OFFSET 0.8272 -3.3923 0.5977
                    CHANNELS 6 Xposition Yposition Zposition Zrotation Xrotation Yrotation
                    JOINT RightFinger12
                    {
                      OFFSET 0.565 -2.3158 0.4082
                      CHANNELS 6 Xposition Yposition Zposition Zrotation Xrotation Yrotation
                      End Site
                      {
                        OFFSET 0.4919 -1.6479 0.2673
                      }
                    }
                  }
                }
                JOINT RightFinger2
                {
                  OFFSET -0.916 -9.2044 0.2193
                  CHANNELS 6 Xposition Yposition Zposition Zrotation Xrotation Yrotation
                  JOINT RightFinger21
                  {
                    OFFSET -0.0117 -4.1944 -0.0248
                    CHANNELS 6 Xposition Yposition Zposition Zrotation Xrotation Yrotation
                    JOINT RightFinger22
                    {
                      OFFSET -0.0071 -2.3249 -0.0142
                      CHANNELS 6 Xposition Yposition Zposition Zrotation Xrotation Yrotation
                      End Site
                      {
                        OFFSET 0.1475 -2.0882 0.0028
                      }
                    }
                  }
                }
                JOINT RightFinger3
                {
                  OFFSET -0.6113 -8.7231 -2.0637
                  CHANNELS 6 Xposition Yposition Zposition Zrotation Xrotation Yrotation
                  JOINT RightFinger31
                  {
                    OFFSET 0.1927 -3.8059 -0.2383
                    CHANNELS 6 Xposition Yposition Zposition Zrotation Xrotation Yrotation
                    JOINT RightFinger32
                    {
                      OFFSET 0.1091 -2.1688 -0.1362
                      CHANNELS 6 Xposition Yposition Zposition Zrotation Xrotation Yrotation
                      End Site
                      {
                        OFFSET 0.2358 -1.9176 -0.0906
                      }
                    }
                  }
                }
                JOINT RightFinger4
                {
                  OFFSET 0.6151 -8.0947 -3.564
                  CHANNELS 6 Xposition Yposition Zposition Zrotation Xrotation Yrotation
                  JOINT RightFinger41
                  {
                    OFFSET 0.4882 -2.341 -0.6462
                    CHANNELS 6 Xposition Yposition Zposition Zrotation Xrotation Yrotation
                    JOINT RightFinger42
                    {
                      OFFSET 0.3574 -1.7166 -0.4742
                      CHANNELS 6 Xposition Yposition Zposition Zrotation Xrotation Yrotation
                      End Site
                      {
                        OFFSET 0.4187 -1.5237 -0.3496
                      }
                    }
                  }
                }
                JOINT RightFinger0
                {
                  OFFSET 1.4199 -1.8761 1.4221
                  CHANNELS 6 Xposition Yposition Zposition Zrotation Xrotation Yrotation
                  JOINT RightFinger01
                  {
                    OFFSET 1.1472 -3.4929 2.6336
                    CHANNELS 6 Xposition Yposition Zposition Zrotation Xrotation Yrotation
                    JOINT RightFinger02
                    {
                      OFFSET 0.8229 -2.3 1.6571
                      CHANNELS 6 Xposition Yposition Zposition Zrotation Xrotation Yrotation
                      End Site
                      {
                        OFFSET 0.5822 -1.6914 1.1582
                      }
                    }
                  }
                }
              }
            }
          }
        }
      }
    }
  }
  JOINT RightHip
  {
    OFFSET -9.412 3.9771 -0.7758
    CHANNELS 6 Xposition Yposition Zposition Zrotation Xrotation Yrotation
    JOINT RightKnee
    {
      OFFSET -0.7531 -40.938 0
      CHANNELS 6 Xposition Yposition Zposition Zrotation Xrotation Yrotation
      JOINT RightAnkle
      {
        OFFSET 0 -40.1986 0
        CHANNELS 6 Xposition Yposition Zposition Zrotation Xrotation Yrotation
        JOINT RightToe
        {
          OFFSET 0 -4.4182 9.239
          CHANNELS 6 Xposition Yposition Zposition Zrotation Xrotation Yrotation
          End Site
          {
            OFFSET 0 0 6.1981
          }
        }
      }
    }
  }
  JOINT LeftHip
  {
    OFFSET 9.4119 3.9773 -0.7758
    CHANNELS 6 Xposition Yposition Zposition Zrotation Xrotation Yrotation
    JOINT LeftKnee
    {
      OFFSET 0.7532 -40.9383 0
      CHANNELS 6 Xposition Yposition Zposition Zrotation Xrotation Yrotation
      JOINT LeftAnkle
      {
        OFFSET 0 -40.1986 0
        CHANNELS 6 Xposition Yposition Zposition Zrotation Xrotation Yrotation
        JOINT LeftToe
        {
          OFFSET 0 -4.4182 9.239
          CHANNELS 6 Xposition Yposition Zposition Zrotation Xrotation Yrotation
          End Site
          {
            OFFSET 0 0 6.1981
          }
        }
      }
    }
  }
}
MOTION
Frames:	4
Frame Time:	0.0333333
5.72205e-005 65.662 3.42586 0 0 -0 0 8.7983 -4.7612 0 0 -0 0 8.0291 0.4195 0 0 -0 0 9.9351 -2.2114 0 0 -0 0 22.3885 -0.4656 0 0 -0 -0.0001 12.643 3.4389 0 0 -0 2.2603 21.606 7.4023 0 0 -12.5014 13.5163 -1.1332 -5.0146 88.1196 14.2451 10.6914 -0.0995 -28.05 -0.2431 -0.00160068 -0.00239207 0.000740045 0.0679 -23.3996 -0.1402 -8.4365e-005 7.00714e-005 -9.52055e-007 0.7932 -9.069 2.5189 9.93923e-017 -1.98785e-016 -1.59028e-015 -0.8272 -3.3923 0.5977 9.93923e-017 -5.96354e-016 -1.59028e-015 -0.5649 -2.3158 0.4082 -9.93923e-017 -5.96354e-016 -1.59028e-015 0.9159 -9.2044 0.2193 9.93923e-017 -1.98785e-016 -1.59028e-015 0.0117 -4.1944 -0.0248 -0.0128176 0.00232552 8.52707e-005 0.0071 -2.3249 -0.0142 9.93923e-017 5.96354e-016 -0 0.6113 -8.7231 -2.0637 9.93923e-017 -1.98785e-016 -1.59028e-015 -0.1927 -3.8059 -0.2383 -0.0160551 0.00299681 0.000857156 -0.1091 -2.1688 -0.1362 -2.48481e-016 0 3.18055e-015 -0.6151 -8.0947 -3.5641 9.93923e-017 -1.98785e-016 -1.59028e-015 -0.4882 -2.341 -0.6462 -0.0125865 0.0031206 0.00282719 -0.3575 -1.7167 -0.4742 0 1.98785e-016 -0 -1.42 -1.8761 1.4223 9.93923e-017 -1.98785e-016 -1.59028e-015 -1.1471 -3.4929 2.6334 9.93923e-017 -5.96354e-016 -1.59028e-015 -0.823 -2.3 1.6571 -9.93923e-017 -5.96354e-016 -1.59028e-015 -2.2603 21.606 7.4023 -0.865644 0.16582 7.03859 -13.5187 -1.1334 -5.0155 -88.0329 10.2057 -10.5567 0.0994 -28.0499 -0.2431 0.0015593 -0.00248883 -0.000788628 -0.0679 -23.3996 -0.1402 7.87605e-005 4.10553e-005 1.24965e-005 -0.7932 -9.0691 2.5189 -3.97569e-016 -7.95139e-016 3.18055e-015 0.8272 -3.3923 0.5977 -1.98785e-016 -3.97569e-016 3.18055e-015 0.565 -2.3158 0.4082 -1.98785e-016 0 3.18055e-015 -0.916 -9.2044 0.2193 -3.97569e-016 -7.95139e-016 3.18055e-015 -0.0117 -4.1944 -0.0248 0.0129473 0.00231697 -8.70038e-005 -0.0071 -2.3249 -0.0142 9.93923e-017 -7.95139e-016 1.59028e-015 -0.6113 -8.7231 -2.0637 -3.97569e-016 -7.95139e-016 3.18055e-015 0.1927 -3.8059 -0.2383 0.0163314 0.00303369 -0.000872333 0.1091 -2.1688 -0.1362 3.97569e-016 7.95139e-016 -3.18055e-015 0.6151 -8.0947 -3.564 -3.97569e-016 -7.95139e-016 3.18055e-015 0.4882 -2.341 -0.6462 0.0145763 0.00367772 -0.00326275 0.3574 -1.7166 -0.4742 9.93923e-017 -3.97569e-016 -0 1.4199 -1.8761 1.4221 -3.97569e-016 -7.95139e-016 3.18055e-015 1.1472 -3.4929 2.6336 -1.98785e-016 -3.97569e-016 3.18055e-015 0.8229 -2.3 1.6571 -1.98785e-016 0 3.18055e-015 -9.412 3.9771 -0.7758 3.42482 1.32465 -0.0626183 -0.7531 -40.938 0 0.000117508 0.717283 0.000978199 0 -40.1986 0 -3.4257 -2.04197 -0.0604716 8.88178e-016 -4.4182 9.239 6.47761e-025 0 -0 9.4119 3.9773 -0.7758 -3.42483 1.34017 0.0627307 0.7532 -40.9383 -2.22045e-016 -0.000193936 0.682302 -0.0013703 -8.88179e-016 -40.1986 0 3.42574 -2.02253 0.0595886 -8.88178e-016 -4.4182 9.239 -8.45714e-024 0 -7.40531e-025 
1.31781 65.4387 20.5251 -1.21017e-008 3.21253e-007 66.6667 0 8.7983 -4.7612 -0.746109 -0.421719 -0.394854 3.55271e-015 8.0291 0.4195 -1.49516 -0.838245 -0.795179 0 9.9351 -2.2114 -1.49516 -0.838247 -0.795181 0 22.3885 -0.4656 0.00771611 0.172034 0.000258718 -0.0001 12.643 3.4389 0.114759 0.0297274 0.00320025 2.2603 21.606 7.4023 -21.0057 0.419666 -15.8712 13.5163 -1.1332 -5.0146 88.1664 14.8657 11.0576 -0.0995 -28.05 -0.2431 -16.2759 -43.2891 10.8839 0.0679 -23.3996 -0.1402 -8.82576 5.40223 -3.96099 0.7932 -9.069 2.5189 7.29223e-007 4.02847e-006 4.05711e-007 -0.8272 -3.3923 0.5977 1.30206e-006 -1.03061e-006 -9.68163e-006 -0.5649 -2.3158 0.4082 7.47861e-006 -4.80373e-006 -4.04431e-007 0.9159 -9.2044 0.2193 7.29223e-007 4.02847e-006 4.05711e-007 0.0117 -4.1944 -0.0248 -0.0128834 0.0023385 7.9406e-005 0.0071 -2.3249 -0.0142 1.18644e-006 1.18827e-006 -1.62215e-006 0.6113 -8.7231 -2.0637 7.29223e-007 4.02847e-006 4.05711e-007 -0.1927 -3.8059 -0.2383 -0.0160654 0.00299825 0.000853437 -0.1091 -2.1688 -0.1362 1.64344e-006 -1.80063e-006 -3.64994e-006 -0.6151 -8.0947 -3.5641 7.29223e-007 4.02847e-006 4.05711e-007 -0.4882 -2.341 -0.6462 -0.0125528 0.00311004 0.00282156 -0.3575 -1.7167 -0.4742 3.36045e-006 1.12291e-006 -5.86714e-006 -1.42 -1.8761 1.4223 7.29223e-007 4.02847e-006 4.05711e-007 -1.1471 -3.4929 2.6334 1.30206e-006 -1.03061e-006 -9.68163e-006 -0.823 -2.3 1.6571 7.47861e-006 -4.80373e-006 -4.04431e-007 -2.2603 21.606 7.4023 17.9415 -1.36433 19.507 -13.5187 -1.1334 -5.0155 -86.7195 -0.52842 -11.3095 0.0994 -28.0499 -0.2431 17.4987 -39.6482 -9.86258 -0.0679 -23.3996 -0.1402 2.6743 -6.93736 7.63747 -0.7932 -9.0691 2.5189 1.26745e-006 -3.92241e-006 3.01919e-006 0.8272 -3.3923 0.5977 1.35622e-006 -1.50442e-007 2.68353e-006 0.565 -2.3158 0.4082 6.36111e-015 3.18055e-015 6.36111e-015 -0.916 -9.2044 0.2193 1.26745e-006 -3.92241e-006 3.01919e-006 -0.0117 -4.1944 -0.0248 0.0129572 0.00231068 -8.7424e-005 -0.0071 -2.3249 -0.0142 -3.18055e-015 0 -0 -0.6113 -8.7231 -2.0637 1.26745e-006 -3.92241e-006 3.01919e-006 0.1927 -3.8059 -0.2383 0.0163305 0.00302683 -0.000876205 0.1091 -2.1688 -0.1362 -7.06225e-031 6.36111e-015 6.36111e-015 0.6151 -8.0947 -3.564 1.26745e-006 -3.92241e-006 3.01919e-006 0.4882 -2.341 -0.6462 0.0146337 0.00369583 -0.00327539 0.3574 -1.7166 -0.4742 -9.54166e-015 0 -1.27222e-014 1.4199 -1.8761 1.4221 1.26745e-006 -3.92241e-006 3.01919e-006 1.1472 -3.4929 2.6336 1.35622e-006 -1.50442e-007 2.68353e-006 0.8229 -2.3 1.6571 6.36111e-015 3.18055e-015 6.36111e-015 -9.412 3.9771 -0.7758 -5.8052 -1.06381 -1.04217 -0.7531 -40.938 -1.77636e-015 0.982336 3.86701 -0.155787 0 -40.1986 0 -3.24799 -3.85679 -0.335638 0 -4.4182 9.239 7.95139e-016 1.27087e-008 -3.18055e-015 9.4119 3.9773 -0.7758 -2.86259 -2.41834 0.35539 0.7532 -40.9383 0 0.00347498 8.14634 -0.0699515 0 -40.1986 8.88178e-016 5.23621 -6.09937 0.993789 1.77636e-015 -4.4182 9.239 4.50513e-007 -4.61713e-007 -2.62542e-006 
-0.791516 65.1761 35.8784 -1.91294e-015 4.81516e-015 133.333 0 8.7983 -4.7612 -1.50242 -0.85252 -0.781737 -3.55271e-015 8.0291 0.4195 -3.0168 -1.68416 -1.58578 0 9.9351 -2.2114 -3.01681 -1.68416 -1.5858 7.10543e-015 22.3885 -0.4656 0.0147901 0.343696 0.000188465 -0.0001 12.643 3.4389 0.229512 0.059461 0.00634883 2.2603 21.606 7.4023 -41.9628 0.834809 -19.2421 13.5163 -1.1332 -5.0146 88.2134 15.4863 11.4241 -0.0995 -28.05 -0.2431 -95.4015 -77.0668 -42.7131 0.0679 -23.3996 -0.1402 -17.6626 10.8 -7.73083 0.7932 -9.069 2.5189 -4.77083e-015 1.09332e-015 3.97569e-016 -0.8272 -3.3923 0.5977 -4.9488e-006 -2.62044e-005 2.19794e-008 -0.5649 -2.3158 0.4082 -1.59028e-015 9.93923e-017 3.97569e-016 0.9159 -9.2044 0.2193 -4.77083e-015 1.09332e-015 3.97569e-016 0.0117 -4.1944 -0.0248 -0.0128294 0.00232545 8.60936e-005 0.0071 -2.3249 -0.0142 -4.77083e-015 8.94531e-016 -0 0.6113 -8.7231 -2.0637 -4.77083e-015 1.09332e-015 3.97569e-016 -0.1927 -3.8059 -0.2383 -0.0160707 0.00297869 0.00085923 -0.1091 -2.1688 -0.1362 3.31043e-032 -1.59028e-015 1.19271e-015 -0.6151 -8.0947 -3.5641 -4.77083e-015 1.09332e-015 3.97569e-016 -0.4882 -2.341 -0.6462 -0.0126017 0.00313641 0.00282795 -0.3575 -1.7167 -0.4742 3.18055e-015 -1.59028e-015 3.97569e-016 -1.42 -1.8761 1.4223 -4.77083e-015 1.09332e-015 3.97569e-016 -1.1471 -3.4929 2.6334 -4.9488e-006 -2.62044e-005 2.19794e-008 -0.823 -2.3 1.6571 -1.59028e-015 9.93923e-017 3.97569e-016 -2.2603 21.606 7.4023 37.3551 -2.70227 31.9975 -13.5187 -1.1334 -5.0155 -85.4236 -11.2698 -12.0597 0.0994 -28.0499 -0.2431 71.2634 -74.562 18.2476 -0.0679 -23.3996 -0.1402 5.40726 -13.9221 15.3214 -0.7932 -9.06911 2.5189 4.02001e-006 -6.07704e-007 -2.18361e-006 0.8272 -3.3923 0.5977 2.81662e-006 3.1082e-006 -1.47347e-006 0.565 -2.3158 0.4082 4.9937e-006 -8.82233e-006 6.00431e-006 -0.916 -9.20441 0.2193 4.02001e-006 -6.07704e-007 -2.18361e-006 -0.0117 -4.1944 -0.0248 0.0129557 0.00233183 -8.78205e-005 -0.0071 -2.3249 -0.0142 -3.18055e-015 2.27036e-006 -1.59028e-015 -0.6113 -8.7231 -2.0637 4.02001e-006 -6.07704e-007 -2.18361e-006 0.1927 -3.8059 -0.2383 0.016306 0.00302489 -0.000869847 0.1091 -2.1688 -0.1362 2.31061e-006 8.63728e-006 -4.62249e-006 0.6151 -8.0947 -3.564 4.02001e-006 -6.07704e-007 -2.18361e-006 0.4882 -2.341 -0.6462 0.0146026 0.00369439 -0.00326995 0.3574 -1.7166 -0.4742 5.18304e-006 -1.25475e-006 -1.00375e-006 1.4199 -1.8761 1.4221 4.02001e-006 -6.07704e-007 -2.18361e-006 1.1472 -3.4929 2.6336 2.81662e-006 3.1082e-006 -1.47347e-006 0.8229 -2.3 1.6571 4.9937e-006 -8.82233e-006 6.00431e-006 -9.412 3.9771 -0.7758 -15.1373 -3.59043 -2.02902 -0.7531 -40.938 0 1.98356 7.29993 -0.316067 7.10543e-015 -40.1986 3.55271e-015 -3.07634 -5.807 -0.613496 0 -4.4182 9.239 5.3174e-006 6.4692e-006 1.42024e-005 9.4119 3.9773 -0.7758 -2.26655 -6.09878 0.652241 0.7532 -40.9383 0 0.04349 15.4642 -0.147595 3.55271e-015 -40.1986 0 7.16287 -10.0948 1.93383 3.55271e-015 -4.4182 9.239 -2.27469e-006 1.69942e-007 -9.62664e-006 
-4.27254 64.9999 47.8209 -7.01671e-015 7.01671e-015 180 8.88178e-016 8.7983 -4.7612 -2.03456 -1.15727 -1.04848 7.77156e-016 8.0291 0.4195 -4.09117 -2.27638 -2.13804 0 9.9351 -2.2114 -4.09117 -2.27638 -2.13805 1.77636e-015 22.3885 -0.4656 0.0227517 0.515845 -8.68745e-005 -0.0001 12.643 3.4389 0.344456 0.0892037 0.00847374 2.2603 21.606 7.4023 -56.6317 1.11008 -21.558 13.5163 -1.1332 -5.0146 88.2464 15.9207 11.6807 -0.0995 -28.05 -0.2431 -170.079 -56.8868 -99.6892 0.0679 -23.3996 -0.1402 -23.9151 14.5075 -10.2579 0.7932 -9.06901 2.5189 1.59028e-014 -1.11319e-014 9.54166e-015 -0.8272 -3.3923 0.5977 1.27222e-014 -7.95139e-015 3.18055e-015 -0.5649 -2.3158 0.4082 6.36111e-015 -9.54166e-015 6.36111e-015 0.9159 -9.20441 0.2193 1.59028e-014 -1.11319e-014 9.54166e-015 0.0117 -4.1944 -0.0248 -0.0128297 0.00233182 9.18647e-005 0.0071 -2.3249 -0.0142 9.54166e-015 -7.95139e-015 -3.18055e-015 0.6113 -8.7231 -2.0637 1.59028e-014 -1.11319e-014 9.54166e-015 -0.1927 -3.8059 -0.2383 -0.0160523 0.00299283 0.000861439 -0.1091 -2.1688 -0.1362 -3.18055e-015 1.59028e-015 -0 -0.6151 -8.0947 -3.5641 1.59028e-014 -1.11319e-014 9.54166e-015 -0.4882 -2.341 -0.6462 -0.0125061 0.00310517 0.00281271 -0.3575 -1.7167 -0.4742 1.27222e-014 7.95139e-015 -0 -1.42 -1.8761 1.4223 1.59028e-014 -1.11319e-014 9.54166e-015 -1.1471 -3.4929 2.6334 1.27222e-014 -7.95139e-015 3.18055e-015 -0.823 -2.3 1.6571 6.36111e-015 -9.54166e-015 6.36111e-015 -2.2603 21.606 7.4023 51.284 -3.41221 40.728 -13.5187 -1.1334 -5.0155 -84.5803 -18.674 -12.6013 0.0993999 -28.0499 -0.2431 166.211 -65.4851 95.6107 -0.0678999 -23.3996 -0.1402 7.46377 -18.8104 20.7801 -0.793199 -9.06911 2.5189 1.59028e-015 1.11319e-014 -0 0.827199 -3.3923 0.5977 -2.18633e-006 2.56187e-006 -2.80981e-006 0.565 -2.3158 0.4082 3.97569e-015 6.36111e-015 3.18055e-015 -0.915999 -9.20441 0.2193 1.59028e-015 1.11319e-014 -0 -0.0117 -4.1944 -0.0248 0.0128529 0.00229752 -7.86151e-005 -0.00709999 -2.3249 -0.0142 -3.97569e-015 -3.18055e-015 -9.54166e-015 -0.611299 -8.72311 -2.0637 1.59028e-015 1.11319e-014 -0 0.1927 -3.8059 -0.2383 0.0163495 0.0030347 -0.000874348 0.1091 -2.1688 -0.1362 -1.76556e-031 -1.59028e-015 -6.36111e-015 0.6151 -8.09471 -3.564 1.59028e-015 1.11319e-014 -0 0.4882 -2.341 -0.6462 0.0145097 0.00365565 -0.00324479 0.3574 -1.7166 -0.4742 5.56597e-015 0 6.36111e-015 1.4199 -1.8761 1.4221 1.59028e-015 1.11319e-014 -0 1.1472 -3.4929 2.6336 -2.18633e-006 2.56187e-006 -2.80981e-006 0.822899 -2.3 1.6571 3.97569e-015 6.36111e-015 3.18055e-015 -9.412 3.9771 -0.7758 -21.6852 -5.2925 -2.73117 -0.7531 -40.938 0 2.67873 9.57675 -0.420094 -7.10543e-015 -40.1986 0 -2.98687 -7.10724 -0.81387 0 -4.4182 9.239 1.08294e-005 2.8135e-007 7.11253e-007 9.4119 3.9773 -0.7758 -1.78911 -8.53877 0.865707 0.7532 -40.9383 -7.10543e-015 0.0881417 20.3263 -0.214952 -1.77636e-015 -40.1986 0 8.55231 -12.7235 2.65919 0 -4.4182 9.239 8.48199e-007 -1.28373e-007 -1.69588e-008 
